<svg width="40" height="40" viewBox="0 0 40 40" fill="none" xmlns="http://www.w3.org/2000/svg">
<path d="M20 0.799805C9.39599 0.799805 0.799988 9.39581 0.799988 19.9998C0.799988 30.6038 9.39599 39.1998 20 39.1998C30.604 39.1998 39.2 30.6038 39.2 19.9998C39.2 9.39581 30.604 0.799805 20 0.799805ZM15.3 27.9578H11.412V15.4458H15.3V27.9578ZM13.332 13.9098C12.104 13.9098 11.31 13.0398 11.31 11.9638C11.31 10.8658 12.128 10.0218 13.382 10.0218C14.636 10.0218 15.404 10.8658 15.428 11.9638C15.428 13.0398 14.636 13.9098 13.332 13.9098ZM29.5 27.9578H25.612V21.0238C25.612 19.4098 25.048 18.3138 23.642 18.3138C22.568 18.3138 21.93 19.0558 21.648 19.7698C21.544 20.0238 21.518 20.3838 21.518 20.7418V27.9558H17.628V19.4358C17.628 17.8738 17.578 16.5678 17.526 15.4438H20.904L21.082 17.1818H21.16C21.672 16.3658 22.926 15.1618 25.024 15.1618C27.582 15.1618 29.5 16.8758 29.5 20.5598V27.9578Z" fill="#3D445C"/>
</svg>
