<svg width="38" height="38" viewBox="0 0 38 38" fill="none" xmlns="http://www.w3.org/2000/svg">
<path d="M34 12.3333C34.884 12.3333 35.7319 12.6845 36.357 13.3096C36.9821 13.9348 37.3333 14.7826 37.3333 15.6667V22.3333C37.3333 23.2174 36.9821 24.0652 36.357 24.6904C35.7319 25.3155 34.884 25.6667 34 25.6667H32.23C31.8236 28.8888 30.2554 31.852 27.8195 34C25.3837 36.148 22.2476 37.3333 19 37.3333V34C21.6521 34 24.1957 32.9464 26.071 31.0711C27.9464 29.1957 29 26.6522 29 24V14C29 11.3478 27.9464 8.80429 26.071 6.92893C24.1957 5.05357 21.6521 4 19 4C16.3478 4 13.8043 5.05357 11.9289 6.92893C10.0535 8.80429 8.99996 11.3478 8.99996 14V25.6667H3.99996C3.1159 25.6667 2.26806 25.3155 1.64294 24.6904C1.01782 24.0652 0.666626 23.2174 0.666626 22.3333V15.6667C0.666626 14.7826 1.01782 13.9348 1.64294 13.3096C2.26806 12.6845 3.1159 12.3333 3.99996 12.3333H5.76996C6.17668 9.11149 7.74509 6.14878 10.1809 4.00112C12.6167 1.85346 15.7525 0.668457 19 0.668457C22.2474 0.668457 25.3832 1.85346 27.819 4.00112C30.2548 6.14878 31.8232 9.11149 32.23 12.3333H34ZM11.9333 25.3083L13.7 22.4817C15.2884 23.4767 17.1256 24.003 19 24C20.8743 24.003 22.7115 23.4767 24.3 22.4817L26.0666 25.3083C23.9487 26.6352 21.4992 27.3372 19 27.3333C16.5007 27.3372 14.0512 26.6352 11.9333 25.3083Z" fill="#F9995D"/>
</svg>
